<svg width="127" height="127" viewBox="0 0 127 127" fill="none" xmlns="http://www.w3.org/2000/svg">
<g clip-path="url(#clip0_7_251)">
<path d="M6.20338 52.4302C8.37668 57.5065 12.5005 60.7439 17.7828 61.459C19.6688 61.7114 23.5695 61.3486 28.9768 60.4385L31.3931 60.0124L54.3298 76.0729L77.2417 92.116L77.6702 94.4235C77.8962 95.7052 78.4434 98.3168 78.8967 100.273C79.5588 103.168 79.8516 104.091 80.5373 105.4C81.6481 107.522 83.0841 109.154 85.0613 110.539C86.9929 111.91 89.0173 112.701 91.4409 113.053C93.9312 113.416 97.5526 112.821 99.7589 111.695C102.199 110.42 103.399 109.363 105.091 106.92C107.414 103.629 108.046 101.07 107.66 96.5448C107.565 95.3917 107.541 94.3993 107.59 94.3041C107.663 94.2262 108.603 93.9087 109.719 93.6036C114.044 92.4511 116.271 90.9535 118.525 87.7614C120.19 85.4096 120.913 83.6139 121.254 80.9975C121.557 78.5393 120.877 74.9327 119.685 72.7165C118.525 70.5597 117.089 68.928 115.14 67.5818C113.163 66.1973 111.117 65.4097 108.764 65.0881C106.899 64.832 102.659 65.233 97.4652 66.1271L95.1539 66.5347L72.2173 50.4742L49.3053 34.4311L48.8607 31.9098C47.9246 26.7237 46.8956 22.8538 46.0097 21.1469C44.8989 19.0246 43.4593 17.372 41.4857 16.0085C39.5541 14.6375 37.5297 13.8463 35.1061 13.4937C32.6158 13.1312 28.9944 13.7264 26.7881 14.8521C24.3482 16.1272 23.148 17.1838 21.4556 19.627C19.1156 22.9426 18.501 25.4774 18.8872 30.0022C18.9822 31.1554 19.0055 32.1478 18.9573 32.243C18.8844 32.3209 17.9438 32.6384 16.8277 32.9435C12.4437 34.1281 10.2546 35.5974 7.95658 38.9056C6.25684 41.3068 5.6572 42.8207 5.31696 45.4372C5.05837 47.4109 5.49296 50.7356 6.20338 52.4302Z" fill="#F0E6B1"/>
</g>
<defs>
<clipPath id="clip0_7_251">
<rect width="109.238" height="109.238" fill="white" transform="translate(18.969 126.547) rotate(-100)"/>
</clipPath>
</defs>
</svg>
