<svg width="163" height="163" viewBox="0 0 163 163" fill="none" xmlns="http://www.w3.org/2000/svg">
<g clip-path="url(#clip0_7_243)">
<path d="M42.0261 37.9364C38.0082 40.7952 35.4546 45.9399 35.0926 51.8941C34.7032 58.5696 37.1316 66.3272 41.3296 71.7809C46.6576 78.7465 53.9197 81.6886 60.1713 79.4659C62.4512 78.6361 63.7983 77.777 65.3292 76.1923C71.5732 69.678 71.7366 57.0252 65.7118 46.9145C61.5832 39.9866 55.099 35.7075 48.7494 35.7791C46.9325 35.7818 43.4937 36.9017 42.0261 37.9364Z" fill="#F0E6B1"/>
<path d="M78.3664 24.4989C73.3397 27.6984 70.5538 33.7972 70.7082 41.1705C70.9209 52.1057 78.0818 63.3835 86.6912 66.3358C90.1541 67.5256 92.9735 67.5269 96.2305 66.3415C102.448 64.0257 106.12 57.1039 105.724 48.3431C105.435 41.4669 102.308 33.9634 97.7191 29.0999C93.5658 24.7101 88.2245 22.4126 83.3196 22.9068C81.9216 23.0469 79.3287 23.8852 78.3664 24.4989Z" fill="#F0E6B1"/>
<path d="M23.3325 80.6761C21.5076 82.1043 20.5603 83.2658 19.6958 85.1612C18.7573 87.2153 18.4111 89.449 18.5176 92.2028C18.6091 93.8293 18.7954 94.6309 19.7417 97.1582C21.052 100.686 22.4105 102.826 24.8902 105.296C26.8853 107.23 28.0996 108.106 30.433 109.232C41.7251 114.633 51.7504 106.058 48.3859 93.8459C46.9948 88.7933 43.9731 84.5449 39.5431 81.4941C34.3219 77.8618 27.3736 77.5191 23.3325 80.6761Z" fill="#F0E6B1"/>
<path d="M119.964 45.2678C117.258 46.8063 114.346 50.8957 113.336 54.6355C110.771 63.9471 114.289 73.7582 121.45 77.2904C124.681 78.8547 127.824 78.9489 130.996 77.5309C134.872 75.8038 138.074 71.7143 139.32 66.8872C139.838 64.9073 140.057 61.4553 139.859 59.1033C139.577 55.9392 137.96 51.4958 136.326 49.324C134.638 47.1459 132.937 45.6574 130.897 44.6871C127.358 42.9982 123.636 43.1939 119.964 45.2678Z" fill="#F0E6B1"/>
<path d="M74.64 76.1494C71.1633 78.1788 69.1374 79.7065 66.674 82.1312C57.5139 91.1295 51.9978 105.941 52.5033 120.142C52.644 123.858 52.9577 126.168 53.7688 129.482C55.4015 136.212 57.8921 139.942 62.032 141.834C65.5372 143.43 68.7015 143.438 73.7794 141.827C77.3198 140.696 79.792 139.454 88.6064 134.428C98.5543 128.752 98.1356 128.904 110.667 126.635C118.998 125.131 122.864 124.172 126.123 122.775C134.422 119.228 137.557 113.292 135.275 105.428C134.102 101.482 131.602 96.8587 128.251 92.5723C119.51 81.369 105.732 73.5534 92.9623 72.563C87.5072 72.1247 84.948 72.4766 79.5169 74.3479C77.1271 75.1651 74.9487 75.9843 74.64 76.1494Z" fill="#F0E6B1"/>
</g>
<defs>
<clipPath id="clip0_7_243">
<rect width="126.756" height="126.756" fill="white" transform="translate(0 43.353) rotate(-20)"/>
</clipPath>
</defs>
</svg>
